# xmcd
#
# Track frame offsets: 
#        150
#        9420
#        26580
#        43727
#        66540
#        83660
#        99850
#        120270
#        140375
#        145080
#
# Disc length: 2236 seconds
#
# Revision: 2
# Processed by: cddbd v1.5.2PL0 Copyright (c) Steve Scherf et al.
# Submitted via: ExactAudioCopy v0.99pb4
#
DISCID=7908ba0a
DTITLE=Patricia Kaas - Carnets De Scène [CD1]
DYEAR=1991
DGENRE=Blues
TTITLE0=Générique (Thème Montmajour)
TTITLE1=Les Mannequins D'Osier
TTITLE2=Vénus Des Abribus
TTITLE3=Mon Mec À Moi
TTITLE4=Tropic Blues Bar
TTITLE5=Coeurs Brisés
TTITLE6=Elle Voulait Jouer Cabaret
TTITLE7=L'Heure Du Jazz
TTITLE8=Lili Marlene
TTITLE9=D'Allemagne
EXTD=
EXTT0=
EXTT1=
EXTT2=
EXTT3=
EXTT4=
EXTT5=
EXTT6=
EXTT7=
EXTT8=
EXTT9=
PLAYORDER=
